<svg id="visual" viewBox="0 0 960 270" width="960" height="270" xmlns="http://www.w3.org/2000/svg" xmlns:xlink="http://www.w3.org/1999/xlink" version="1.1"><rect x="0" y="0" width="960" height="270" fill="#2B7FFF"></rect><path d="M0 169L22.8 171.8C45.7 174.7 91.3 180.3 137 178.8C182.7 177.3 228.3 168.7 274 165.3C319.7 162 365.3 164 411.2 164.5C457 165 503 164 548.8 165.7C594.7 167.3 640.3 171.7 686 170.7C731.7 169.7 777.3 163.3 823 163.2C868.7 163 914.3 169 937.2 172L960 175L960 271L937.2 271C914.3 271 868.7 271 823 271C777.3 271 731.7 271 686 271C640.3 271 594.7 271 548.8 271C503 271 457 271 411.2 271C365.3 271 319.7 271 274 271C228.3 271 182.7 271 137 271C91.3 271 45.7 271 22.8 271L0 271Z" fill="#00a6f4"></path><path d="M0 198L22.8 199.5C45.7 201 91.3 204 137 201.7C182.7 199.3 228.3 191.7 274 190.2C319.7 188.7 365.3 193.3 411.2 194.7C457 196 503 194 548.8 191.7C594.7 189.3 640.3 186.7 686 185.3C731.7 184 777.3 184 823 187.3C868.7 190.7 914.3 197.3 937.2 200.7L960 204L960 271L937.2 271C914.3 271 868.7 271 823 271C777.3 271 731.7 271 686 271C640.3 271 594.7 271 548.8 271C503 271 457 271 411.2 271C365.3 271 319.7 271 274 271C228.3 271 182.7 271 137 271C91.3 271 45.7 271 22.8 271L0 271Z" fill="#73bbf7"></path><path d="M0 206L22.8 208C45.7 210 91.3 214 137 216.5C182.7 219 228.3 220 274 221.8C319.7 223.7 365.3 226.3 411.2 224.3C457 222.3 503 215.7 548.8 215.5C594.7 215.3 640.3 221.7 686 224.7C731.7 227.7 777.3 227.3 823 222.3C868.7 217.3 914.3 207.7 937.2 202.8L960 198L960 271L937.2 271C914.3 271 868.7 271 823 271C777.3 271 731.7 271 686 271C640.3 271 594.7 271 548.8 271C503 271 457 271 411.2 271C365.3 271 319.7 271 274 271C228.3 271 182.7 271 137 271C91.3 271 45.7 271 22.8 271L0 271Z" fill="#a8d1fa"></path><path d="M0 237L22.8 235.7C45.7 234.3 91.3 231.7 137 231.8C182.7 232 228.3 235 274 234.3C319.7 233.7 365.3 229.3 411.2 228.5C457 227.7 503 230.3 548.8 231.5C594.7 232.7 640.3 232.3 686 233.2C731.7 234 777.3 236 823 233.3C868.7 230.7 914.3 223.3 937.2 219.7L960 216L960 271L937.2 271C914.3 271 868.7 271 823 271C777.3 271 731.7 271 686 271C640.3 271 594.7 271 548.8 271C503 271 457 271 411.2 271C365.3 271 319.7 271 274 271C228.3 271 182.7 271 137 271C91.3 271 45.7 271 22.8 271L0 271Z" fill="#d5e8fd"></path><path d="M0 238L22.8 238.7C45.7 239.3 91.3 240.7 137 240.3C182.7 240 228.3 238 274 239.5C319.7 241 365.3 246 411.2 246.5C457 247 503 243 548.8 240.8C594.7 238.7 640.3 238.3 686 239.3C731.7 240.3 777.3 242.7 823 244.7C868.7 246.7 914.3 248.3 937.2 249.2L960 250L960 271L937.2 271C914.3 271 868.7 271 823 271C777.3 271 731.7 271 686 271C640.3 271 594.7 271 548.8 271C503 271 457 271 411.2 271C365.3 271 319.7 271 274 271C228.3 271 182.7 271 137 271C91.3 271 45.7 271 22.8 271L0 271Z" fill="#ffffff"></path></svg>