<svg id="visual" viewBox="0 0 900 300" width="900" height="300" xmlns="http://www.w3.org/2000/svg" xmlns:xlink="http://www.w3.org/1999/xlink" version="1.1"><rect x="0" y="0" width="900" height="300" fill="#3b82f6"></rect><path d="M0 214L21.5 211.7C43 209.3 86 204.7 128.8 200.5C171.7 196.3 214.3 192.7 257.2 202.5C300 212.3 343 235.7 385.8 242.7C428.7 249.7 471.3 240.3 514.2 240.5C557 240.7 600 250.3 642.8 252.5C685.7 254.7 728.3 249.3 771.2 247.8C814 246.3 857 248.7 878.5 249.8L900 251L900 301L878.5 301C857 301 814 301 771.2 301C728.3 301 685.7 301 642.8 301C600 301 557 301 514.2 301C471.3 301 428.7 301 385.8 301C343 301 300 301 257.2 301C214.3 301 171.7 301 128.8 301C86 301 43 301 21.5 301L0 301Z" fill="#1e293b" stroke-linecap="round" stroke-linejoin="miter"></path></svg>