<svg id="visual" viewBox="0 0 960 270" width="960" height="270" xmlns="http://www.w3.org/2000/svg" xmlns:xlink="http://www.w3.org/1999/xlink" version="1.1"><rect x="0" y="0" width="960" height="270" fill="#ffffff"></rect><path d="M0 183L137 196L274 166L411 178L549 165L686 162L823 167L960 159L960 271L823 271L686 271L549 271L411 271L274 271L137 271L0 271Z" fill="#00bcff"></path><path d="M0 205L137 200L274 199L411 203L549 207L686 206L823 196L960 183L960 271L823 271L686 271L549 271L411 271L274 271L137 271L0 271Z" fill="#00afff"></path><path d="M0 206L137 228L274 202L411 227L549 203L686 216L823 224L960 199L960 271L823 271L686 271L549 271L411 271L274 271L137 271L0 271Z" fill="#00a0ff"></path><path d="M0 235L137 239L274 232L411 218L549 233L686 229L823 233L960 220L960 271L823 271L686 271L549 271L411 271L274 271L137 271L0 271Z" fill="#0090ff"></path><path d="M0 251L137 244L274 254L411 242L549 258L686 243L823 242L960 256L960 271L823 271L686 271L549 271L411 271L274 271L137 271L0 271Z" fill="#2b7fff"></path></svg>