<svg id="visual" viewBox="0 0 540 480" width="540" height="480" xmlns="http://www.w3.org/2000/svg" xmlns:xlink="http://www.w3.org/1999/xlink" version="1.1"><rect x="0" y="0" width="540" height="480" fill="#ffffff"></rect><path d="M0 326L77 350L154 296L231 317L309 293L386 288L463 297L540 284L540 481L463 481L386 481L309 481L231 481L154 481L77 481L0 481Z" fill="#00bcff"></path><path d="M0 365L77 357L154 355L231 362L309 369L386 368L463 349L540 325L540 481L463 481L386 481L309 481L231 481L154 481L77 481L0 481Z" fill="#00afff"></path><path d="M0 368L77 406L154 360L231 404L309 361L386 384L463 400L540 355L540 481L463 481L386 481L309 481L231 481L154 481L77 481L0 481Z" fill="#00a0ff"></path><path d="M0 418L77 426L154 414L231 388L309 415L386 407L463 415L540 392L540 481L463 481L386 481L309 481L231 481L154 481L77 481L0 481Z" fill="#0090ff"></path><path d="M0 447L77 435L154 453L231 431L309 459L386 434L463 432L540 456L540 481L463 481L386 481L309 481L231 481L154 481L77 481L0 481Z" fill="#2b7fff"></path></svg>