<svg id="visual" viewBox="0 0 600 900" width="600" height="900" xmlns="http://www.w3.org/2000/svg" xmlns:xlink="http://www.w3.org/1999/xlink" version="1.1"><rect x="0" y="0" width="600" height="900" fill="#3b82f6"></rect><path d="M0 645L14.3 637.7C28.7 630.3 57.3 615.7 85.8 603.2C114.3 590.7 142.7 580.3 171.2 610.2C199.7 640 228.3 710 257 730.7C285.7 751.3 314.3 722.7 343 723.2C371.7 723.7 400.3 753.3 428.8 759.8C457.3 766.3 485.7 749.7 514.2 745C542.7 740.3 571.3 747.7 585.7 751.3L600 755L600 901L585.7 901C571.3 901 542.7 901 514.2 901C485.7 901 457.3 901 428.8 901C400.3 901 371.7 901 343 901C314.3 901 285.7 901 257 901C228.3 901 199.7 901 171.2 901C142.7 901 114.3 901 85.8 901C57.3 901 28.7 901 14.3 901L0 901Z" fill="#1e293b" stroke-linecap="round" stroke-linejoin="miter"></path></svg>