<svg id="visual" viewBox="0 0 540 480" width="540" height="480" xmlns="http://www.w3.org/2000/svg" xmlns:xlink="http://www.w3.org/1999/xlink" version="1.1"><rect x="0" y="0" width="540" height="480" fill="#2B7FFF"></rect><path d="M0 301L12.8 306.2C25.7 311.3 51.3 321.7 77 319C102.7 316.3 128.3 300.7 154 294.7C179.7 288.7 205.3 292.3 231.2 293.2C257 294 283 292 308.8 295C334.7 298 360.3 306 386 304.3C411.7 302.7 437.3 291.3 463 291C488.7 290.7 514.3 301.3 527.2 306.7L540 312L540 481L527.2 481C514.3 481 488.7 481 463 481C437.3 481 411.7 481 386 481C360.3 481 334.7 481 308.8 481C283 481 257 481 231.2 481C205.3 481 179.7 481 154 481C128.3 481 102.7 481 77 481C51.3 481 25.7 481 12.8 481L0 481Z" fill="#00a6f4"></path><path d="M0 353L12.8 355.7C25.7 358.3 51.3 363.7 77 359.5C102.7 355.3 128.3 341.7 154 338.8C179.7 336 205.3 344 231.2 346.3C257 348.7 283 345.3 308.8 341.3C334.7 337.3 360.3 332.7 386 330.3C411.7 328 437.3 328 463 334C488.7 340 514.3 352 527.2 358L540 364L540 481L527.2 481C514.3 481 488.7 481 463 481C437.3 481 411.7 481 386 481C360.3 481 334.7 481 308.8 481C283 481 257 481 231.2 481C205.3 481 179.7 481 154 481C128.3 481 102.7 481 77 481C51.3 481 25.7 481 12.8 481L0 481Z" fill="#73bbf7"></path><path d="M0 368L12.8 371.5C25.7 375 51.3 382 77 386.3C102.7 390.7 128.3 392.3 154 395.3C179.7 398.3 205.3 402.7 231.2 399.2C257 395.7 283 384.3 308.8 384.2C334.7 384 360.3 395 386 400.3C411.7 405.7 437.3 405.3 463 396.3C488.7 387.3 514.3 369.7 527.2 360.8L540 352L540 481L527.2 481C514.3 481 488.7 481 463 481C437.3 481 411.7 481 386 481C360.3 481 334.7 481 308.8 481C283 481 257 481 231.2 481C205.3 481 179.7 481 154 481C128.3 481 102.7 481 77 481C51.3 481 25.7 481 12.8 481L0 481Z" fill="#a8d1fa"></path><path d="M0 422L12.8 419.7C25.7 417.3 51.3 412.7 77 413C102.7 413.3 128.3 418.7 154 417.5C179.7 416.3 205.3 408.7 231.2 407C257 405.3 283 409.7 308.8 411.5C334.7 413.3 360.3 412.7 386 414.3C411.7 416 437.3 420 463 415.5C488.7 411 514.3 398 527.2 391.5L540 385L540 481L527.2 481C514.3 481 488.7 481 463 481C437.3 481 411.7 481 386 481C360.3 481 334.7 481 308.8 481C283 481 257 481 231.2 481C205.3 481 179.7 481 154 481C128.3 481 102.7 481 77 481C51.3 481 25.7 481 12.8 481L0 481Z" fill="#d5e8fd"></path><path d="M0 424L12.8 425.2C25.7 426.3 51.3 428.7 77 428.2C102.7 427.7 128.3 424.3 154 427.2C179.7 430 205.3 439 231.2 439.8C257 440.7 283 433.3 308.8 429.2C334.7 425 360.3 424 386 425.8C411.7 427.7 437.3 432.3 463 436C488.7 439.7 514.3 442.3 527.2 443.7L540 445L540 481L527.2 481C514.3 481 488.7 481 463 481C437.3 481 411.7 481 386 481C360.3 481 334.7 481 308.8 481C283 481 257 481 231.2 481C205.3 481 179.7 481 154 481C128.3 481 102.7 481 77 481C51.3 481 25.7 481 12.8 481L0 481Z" fill="#ffffff"></path></svg>